<svg width="94" height="94" viewBox="0 0 94 94" fill="none" xmlns="http://www.w3.org/2000/svg">
<g clip-path="url(#clip0_1_39)">
<path fill-rule="evenodd" clip-rule="evenodd" d="M19.5241 7.8335C14.1606 7.8335 10.1918 12.5279 10.3695 17.6191C10.5399 22.5102 10.3185 28.8449 8.72367 34.0109C7.1241 39.1919 4.41878 42.4741 0 42.8955V47.6527C4.41878 48.0741 7.1241 51.3563 8.72367 56.5376C10.3185 61.7033 10.5399 68.0381 10.3695 72.9293C10.1918 78.0198 14.1606 82.7147 19.5249 82.7147H74.4829C79.8467 82.7147 83.8147 78.0206 83.6369 72.9293C83.4665 68.0381 83.6878 61.7033 85.2827 56.5376C86.883 51.3563 89.5812 48.0741 94 47.6527V42.8955C89.5812 42.4741 86.883 39.1919 85.2827 34.0109C83.6878 28.8457 83.4665 22.5102 83.6369 17.6191C83.8147 12.5287 79.8467 7.8335 74.4829 7.8335H19.5241ZM63.7289 53.9276C63.7289 60.938 58.4997 65.1896 49.8224 65.1896H35.0508C34.6283 65.1896 34.2231 65.0215 33.9243 64.7227C33.6255 64.4238 33.4576 64.0189 33.4576 63.5963V26.9522C33.4576 26.5296 33.6255 26.1244 33.9243 25.8256C34.2231 25.5268 34.6283 25.3589 35.0508 25.3589H49.7381C56.9734 25.3589 61.722 29.2782 61.722 35.2958C61.722 39.5193 58.5279 43.3009 54.4577 43.9628V44.1837C59.9982 44.7916 63.7289 48.6279 63.7289 53.9276ZM48.2118 30.4094H39.789V42.306H46.8829C52.3666 42.306 55.3907 40.0978 55.3907 36.1506C55.3907 32.4519 52.7904 30.4094 48.2118 30.4094ZM39.789 47.0268V60.1374H48.5216C54.231 60.1374 57.2554 57.8462 57.2554 53.5406C57.2554 49.2342 54.1463 47.026 48.1542 47.026L39.789 47.0268Z" fill="#8512FB"/>
</g>
<defs>
<clipPath id="clip0_1_39">
<rect width="94" height="94" fill="white"/>
</clipPath>
</defs>
</svg>
