<svg width="67" height="94" viewBox="0 0 67 94" fill="none" xmlns="http://www.w3.org/2000/svg">
<g clip-path="url(#clip0_1_41)">
<path d="M33.3061 93.7624L6.16707 86.2315L0.119141 18.4265H66.5742L60.52 86.2211L33.3061 93.7624Z" fill="#264DE4"/>
<path d="M55.337 81.9041L60.5104 23.9705H33.3467V87.998L55.337 81.9041Z" fill="#2965F1"/>
<path d="M13.9837 49.1186L14.7293 57.4346H33.3466V49.1186H13.9837ZM12.4854 32.2869L13.2416 40.6029H33.3466V32.2869H12.4854ZM33.3466 70.7162L33.3102 70.7258L24.0449 68.2251L23.4525 61.5927H15.101L16.2664 74.6501L33.3083 79.3788L33.3466 79.3684V70.7162Z" fill="#EBEBEB"/>
<path d="M15.7588 0H25.8348V4.21203H19.9726V8.42407H25.8353V12.6358H15.7588V0ZM27.8502 0H37.9265V3.66261H32.064V4.39509H37.9265V12.8192H27.8505V8.97296H33.7129V8.24049H27.85L27.8502 0ZM39.9419 0H50.0182V3.66261H44.1557V4.39509H50.0182V12.8192H39.9419V8.97296H45.8044V8.24049H39.9422V0H39.9419Z" fill="black"/>
<path d="M52.6561 49.1186L54.1578 32.2869H33.3176V40.6029H45.0405L44.2835 49.1186H33.3176V57.4346H43.5622L42.5962 68.2199L33.3174 70.7232V79.3749L50.3728 74.6501L50.4979 73.2451L52.4532 51.3517L52.6561 49.1186Z" fill="white"/>
</g>
<defs>
<clipPath id="clip0_1_41">
<rect width="66.6925" height="94" fill="white"/>
</clipPath>
</defs>
</svg>
