<svg width="94" height="94" viewBox="0 0 94 94" fill="none" xmlns="http://www.w3.org/2000/svg">
<g clip-path="url(#clip0_1_49)">
<path d="M31.3332 93.9998C39.9812 93.9998 46.9998 86.9812 46.9998 78.3332V62.6665H31.3332C22.6852 62.6665 15.6665 69.6852 15.6665 78.3332C15.6665 86.9812 22.6852 93.9998 31.3332 93.9998Z" fill="#0ACF83"/>
<path d="M15.6665 47.0002C15.6665 38.3522 22.6852 31.3335 31.3332 31.3335H46.9998V62.6668H31.3332C22.6852 62.6668 15.6665 55.6482 15.6665 47.0002Z" fill="#A259FF"/>
<path d="M15.6665 15.6667C15.6665 7.01867 22.6852 0 31.3332 0H46.9998V31.3333H31.3332C22.6852 31.3333 15.6665 24.3147 15.6665 15.6667Z" fill="#F24E1E"/>
<path d="M47 0H62.6667C71.3147 0 78.3333 7.01867 78.3333 15.6667C78.3333 24.3147 71.3147 31.3333 62.6667 31.3333H47V0Z" fill="#FF7262"/>
<path d="M78.3333 47.0002C78.3333 55.6482 71.3147 62.6668 62.6667 62.6668C54.0187 62.6668 47 55.6482 47 47.0002C47 38.3522 54.0187 31.3335 62.6667 31.3335C71.3147 31.3335 78.3333 38.3522 78.3333 47.0002Z" fill="#1ABCFE"/>
</g>
<defs>
<clipPath id="clip0_1_49">
<rect width="94" height="94" fill="white"/>
</clipPath>
</defs>
</svg>
