<svg width="94" height="94" viewBox="0 0 94 94" fill="none" xmlns="http://www.w3.org/2000/svg">
<g clip-path="url(#clip0_1_47)">
<path d="M91.6074 42.8713L51.1308 2.39698C48.8014 0.0660772 45.0208 0.0660772 42.6877 2.39698L34.2843 10.8026L44.9459 21.4643C47.4245 20.6278 50.265 21.1889 52.2398 23.1636C54.2248 25.1509 54.7822 28.0157 53.9237 30.5022L64.1991 40.7791C66.6849 39.9221 69.5541 40.4758 71.5384 42.4645C74.3143 45.2382 74.3143 49.7348 71.5384 52.51C68.7625 55.2859 64.2674 55.2859 61.4899 52.51C59.4029 50.4214 58.8866 47.3554 59.9441 44.7836L50.362 35.2008L50.3605 60.42C51.0376 60.7541 51.6758 61.2006 52.2398 61.7624C55.015 64.5361 55.015 69.0312 52.2398 71.8108C49.4646 74.5846 44.9665 74.5846 42.1942 71.8108C39.4198 69.032 39.1921 64.5369 41.9658 61.7624C42.6518 61.0772 43.3281 60.5595 44.0625 60.2129V34.7602C43.3281 34.4135 42.6525 33.8995 41.9651 33.2099C39.8641 31.1096 39.4712 28.0252 40.5492 25.4431L30.0969 14.932L2.37129 42.6841C0.0396462 45.0172 0.0543337 48.7977 2.38597 51.1294L42.8691 91.6037C45.1993 93.9346 48.9828 93.9346 51.3166 91.6037L91.6045 51.3174C93.9361 48.985 93.9383 45.2022 91.6074 42.8713Z" fill="#F34F29"/>
</g>
<defs>
<clipPath id="clip0_1_47">
<rect width="94" height="94" fill="white"/>
</clipPath>
</defs>
</svg>
