<svg width="94" height="94" viewBox="0 0 94 94" fill="none" xmlns="http://www.w3.org/2000/svg">
<path d="M20.4554 85.4474L14.5488 19.1987H79.4514L73.539 85.4372L46.9605 92.8051L20.4554 85.4474Z" fill="#E44D26"/>
<path d="M47 87.1732L68.4761 81.2189L73.5293 24.6162H47V87.1732Z" fill="#F16529"/>
<path d="M46.9997 49.187H36.2478L35.506 40.8658H46.9997V32.7407H26.626L26.8199 34.9211L28.8174 57.3114H46.9997V49.187ZM46.9997 70.2878L46.9638 70.2974L37.9155 67.8534L37.3368 61.374H29.1801L30.3184 74.1316L46.9623 78.7523L46.9997 78.7412V70.2878Z" fill="#EBEBEB"/>
<path d="M20.5879 1.19482H24.7165V5.27501H28.4942V1.19482H32.6236V13.5485H28.4942V9.41175H24.7173V13.5485H20.5879V1.19482ZM38.0528 5.2919H34.4176V1.19482H45.8188V5.2919H42.1822V13.5485H38.0528V5.2919ZM47.6283 1.19482H51.9332L54.5821 5.53572L57.2281 1.19482H61.5352V13.5485H57.4219V7.42526L54.5821 11.8176H54.5101L51.6681 7.42526V13.5485H47.6276V1.19482H47.6283ZM63.5907 1.19482H67.7208V9.46536H73.5275V13.5492H63.5907V1.19482Z" fill="black"/>
<path d="M46.9717 49.187V57.3114H56.9768L56.0339 67.849L46.9717 70.2952V78.7478L63.6288 74.1316L63.7507 72.7583L65.6601 51.3681L65.8583 49.187H63.6684H46.9717ZM46.9717 32.7407V40.8658H66.5978L66.7601 39.0395L67.131 34.9211L67.3256 32.7407H46.9717Z" fill="white"/>
</svg>
