<svg width="94" height="94" viewBox="0 0 94 94" fill="none" xmlns="http://www.w3.org/2000/svg">
<g clip-path="url(#clip0_1_61)">
<path d="M0 0H94V94H0V0Z" fill="#F7DF1E"/>
<path d="M24.7162 78.5531L31.9094 74.1998C33.2974 76.6603 34.5598 78.7422 37.5879 78.7422C40.4906 78.7422 42.321 77.6069 42.321 73.1904V43.1552H51.1544V73.3152C51.1544 82.4644 45.7913 86.629 37.9665 86.629C30.9 86.629 26.7981 82.9693 24.7158 78.5524M55.9525 77.6065L63.1449 73.4422C65.0385 76.5343 67.4994 78.8057 71.8528 78.8057C75.5133 78.8057 77.8471 76.9757 77.8471 74.4516C77.8471 71.4231 75.4494 70.3502 71.4111 68.584L69.2032 67.6366C62.8299 64.9242 58.6025 61.5167 58.6025 54.3235C58.6025 47.698 63.6502 42.6499 71.5377 42.6499C77.1535 42.6499 81.1918 44.6063 84.0941 49.7172L77.2159 54.1344C75.7013 51.4213 74.0614 50.3487 71.5374 50.3487C68.9502 50.3487 67.3096 51.9893 67.3096 54.1344C67.3096 56.7844 68.9502 57.8577 72.7359 59.4983L74.9441 60.4445C82.4531 63.6629 86.6805 66.9438 86.6805 74.3257C86.6805 82.2768 80.434 86.6301 72.0419 86.6301C63.8393 86.6301 58.5389 82.7181 55.9521 77.6069" fill="black"/>
</g>
<defs>
<clipPath id="clip0_1_61">
<rect width="94" height="94" fill="white"/>
</clipPath>
</defs>
</svg>
