<svg width="94" height="94" viewBox="0 0 94 94" fill="none" xmlns="http://www.w3.org/2000/svg">
<g opacity="0.95">
<path d="M3.03509 49.6438C27.1539 73.9349 14.2603 60.9355 47.0858 94C85.5201 55.2955 81.9716 58.8127 78.427 62.322C75.6148 65.1068 72.8105 67.8954 90.9525 49.6242C92.4056 48.175 92.4056 45.825 90.9525 44.3719C77.7103 31.0239 60.1753 13.1835 47.0858 0C17.0215 30.2758 3.03509 44.3758 3.03509 44.3758C1.59768 45.825 1.59768 48.175 3.03509 49.6438ZM47.078 33.1037L60.8882 47L47.0819 60.8963L33.2718 47L47.078 33.1037Z" fill="#2580F8"/>
<path d="M47.0004 33.186L33.2725 47.0001L47.0004 60.8142V33.186Z" fill="#DEDEDE"/>
<path d="M46.9997 0.0859375C16.9941 30.303 3.03509 44.3756 3.03509 44.3756C1.60159 45.8248 1.60159 48.1748 3.03509 49.6435C27.1343 73.9151 14.2798 60.9588 46.9997 93.9136V60.8139L33.2718 46.9998L46.9997 33.1857V0.0859375Z" fill="#206FD8"/>
</g>
</svg>
