<svg width="94" height="94" viewBox="0 0 94 94" fill="none" xmlns="http://www.w3.org/2000/svg">
<path d="M46.9843 54.0302C51.6177 54.0302 55.3738 50.2741 55.3738 45.6407C55.3738 41.0073 51.6177 37.2512 46.9843 37.2512C42.351 37.2512 38.5948 41.0073 38.5948 45.6407C38.5948 50.2741 42.351 54.0302 46.9843 54.0302Z" fill="#00D8FF"/>
<path d="M46.9834 30.5856C57.8248 30.5856 68.1235 32.1141 75.953 34.8095C84.6485 37.803 89.9526 42.2289 89.9526 45.639C89.9526 49.2715 84.2243 53.9873 74.9231 57.0691C67.5184 59.5224 57.6112 60.8597 46.9834 60.8597C35.8187 60.8597 25.7998 59.5485 18.4809 57.0468C13.899 55.4807 10.1151 53.4454 7.52146 51.2243C5.19087 49.2284 4.01423 47.2468 4.01423 45.639C4.01423 42.2174 9.11541 37.853 17.6234 34.8867C25.4562 32.1561 36.0069 30.5856 46.9834 30.5856ZM46.9834 26.5714C35.5805 26.5714 24.5879 28.2076 16.3019 31.0963C6.3534 34.5648 0 40.0005 0 45.639C0 51.4626 6.82049 57.3035 17.1826 60.8453C24.9714 63.5076 35.4116 64.8739 46.9834 64.8739C58.0119 64.8739 68.3359 63.4804 76.1857 60.8796C86.958 57.3104 93.9669 51.5404 93.9669 45.639C93.9669 39.9801 87.4085 34.5077 77.2597 31.0139C68.9837 28.1648 58.2476 26.5714 46.9834 26.5714ZM33.8706 38.1607C39.2866 28.7692 45.7557 20.6114 52.002 15.1753C58.9393 9.13816 65.4231 6.75435 68.3772 8.4579C71.5239 10.2725 72.7474 17.5909 70.7704 27.1875C69.1964 34.8278 65.4055 44.0781 60.0962 53.2847C54.5186 62.9564 48.3777 70.9804 42.5541 76.0708C38.9084 79.2576 35.255 81.5187 32.0352 82.6559C29.142 83.6777 26.8376 83.707 25.4447 82.9038C22.4807 81.1944 21.2484 74.5952 22.9292 65.7431C24.4765 57.5938 28.3869 47.6697 33.8706 38.1607ZM30.3932 36.1553C24.6964 46.0337 20.6223 56.3735 18.9854 64.9942C17.0201 75.3451 18.5548 83.5643 23.4393 86.3812C28.4843 89.2905 36.9514 86.3001 45.196 79.0931C51.3935 73.6758 57.7927 65.3145 63.5736 55.2901C69.0831 45.7364 73.0335 36.0969 74.7021 27.9975C76.9918 16.8828 75.4948 7.92853 70.3825 4.98045C65.4804 2.15354 57.4635 5.10102 49.3668 12.1472C42.7642 17.8932 36.0204 26.3976 30.3932 36.1553ZM33.8832 53.3065C28.4516 43.9241 24.6146 34.2454 23.0246 26.1189C21.2587 17.0937 22.4316 10.2858 25.3828 8.57732C28.5266 6.75733 35.478 9.3522 42.8047 15.8578C48.6379 21.037 54.7587 28.9409 60.0835 38.1388C65.6773 47.8011 69.5622 57.1287 71.0641 64.7164C72.0043 69.4664 72.1387 73.7609 71.5158 77.1182C70.9562 80.1351 69.8307 82.1462 68.4392 82.9518C65.4779 84.6661 59.1451 82.438 52.3154 76.5609C46.028 71.1505 39.3829 62.8063 33.8832 53.3065ZM30.4091 55.3177C36.1225 65.1866 43.0459 73.8802 49.697 79.6036C57.683 86.4758 65.5705 89.2509 70.4503 86.4259C75.4904 83.5081 77.1283 74.6791 75.0019 63.9369C73.4036 55.8621 69.3553 46.1423 63.5576 36.1276C58.032 26.583 51.6537 18.3465 45.47 12.856C36.9843 5.32143 28.4789 2.14648 23.3717 5.10325C18.4742 7.93835 17.024 16.3561 19.0851 26.8897C20.7657 35.4795 24.7657 45.5694 30.4091 55.3177Z" fill="#00D8FF"/>
</svg>
