<svg width="94" height="94" viewBox="0 0 94 94" fill="none" xmlns="http://www.w3.org/2000/svg">
<g clip-path="url(#clip0_1_70)">
<path d="M47 94C72.9558 94 94 72.9558 94 47C94 21.0443 72.9558 0 47 0C21.0443 0 0 21.0443 0 47C0 72.9558 21.0443 94 47 94ZM25.1097 26.4727C31.1767 20.7975 39.6171 16.4461 47.4073 13.677C60.5086 9.02008 74.354 11.7657 76.4768 20.1199L76.1909 19.8575C78.2472 28.0825 71.1384 37.8977 62.0361 41.4188C53.9286 44.5873 47.1684 44.0625 44.4111 43.1812C41.2347 42.1237 39.4134 40.0675 38.9434 38.8925C38.7672 38.4225 38.4734 37.6588 38.9434 37.4238C39.2372 37.2436 39.3547 37.3023 40.1733 38.1836C40.9409 39.01 43.9372 41.2386 49.6947 40.5923C64.7934 38.8925 73.837 27.1973 70.9661 20.915C68.9686 16.5088 57.3909 14.5073 42.8797 21.7375C25.1959 30.55 24.1972 37.8311 24.0797 40.5923C23.6684 48.1711 33.4797 52.1661 38.7672 57.8648C38.9395 57.9823 39.0609 58.0998 39.1784 58.2761C40.7608 57.6298 42.9972 57.3361 46.5222 57.2734C55.0958 57.1598 59.9172 62.7959 59.7409 67.8484C59.5647 71.8473 55.9183 73.4923 55.272 73.6098C54.8059 73.6686 54.5083 73.6686 54.4495 73.3161C54.3947 73.0772 54.5709 72.9636 55.1584 72.6072C55.7498 72.2547 57.4458 71.0209 57.7983 68.9098C58.1547 66.7948 56.5097 61.6248 48.2807 60.6848C45.3432 60.3284 43.0559 60.5634 41.1132 61.0922C42.5311 64.2059 42.8209 70.5509 39.5309 75.4898C36.1234 80.5384 29.7784 83.6561 23.6097 81.9484C21.6122 81.4236 18.5572 77.3072 21.2009 71.5497C23.6684 66.082 34.2003 60.7984 35.6378 60.0934V60.0699C30.7576 55.8673 18.8901 50.2038 17.2177 41.5441C16.7437 39.0883 17.8913 33.2133 25.1097 26.4727Z" fill="#C76495"/>
<path d="M26.6451 77.3976C28.2823 78.3454 32.0971 77.2174 34.8309 74.2447C35.7278 73.2655 36.4563 72.208 37.0047 71.0722C37.1065 70.8528 37.2162 70.6218 37.3102 70.3828L37.5648 69.6778C38.2698 67.5472 38.3442 65.1854 37.6588 62.6592L37.2358 62.8981V62.9098C37.2358 62.9098 32.3438 65.2246 28.9324 68.8201C25.7599 72.1688 24.8826 76.3714 26.6451 77.3976Z" fill="#C76495"/>
</g>
<defs>
<clipPath id="clip0_1_70">
<rect width="94" height="94" fill="white"/>
</clipPath>
</defs>
</svg>
