<svg width="94" height="94" viewBox="0 0 94 94" fill="none" xmlns="http://www.w3.org/2000/svg">
<path d="M72.458 37.2473C69.5207 36.2357 66.928 34.4167 64.9772 31.999C62.8271 29.3052 60.0894 27.1389 56.9735 25.6658C53.8575 24.1927 50.4459 23.4518 46.9997 23.4998C42.3638 23.1715 37.7743 24.6014 34.1452 27.5046C30.5161 30.4079 28.1137 34.5716 27.4163 39.1665C28.7898 36.8684 30.857 35.0652 33.3203 34.0165C35.7836 32.9679 38.5162 32.7277 41.1247 33.3307C44.057 34.3717 46.6455 36.2013 48.6055 38.6182C50.7674 41.2904 53.5103 43.4343 56.6255 44.8867C59.7408 46.3392 63.1464 47.0619 66.583 46.9998C71.2189 47.3281 75.8084 45.8983 79.4375 42.995C83.0666 40.0917 85.469 35.9281 86.1663 31.3332C84.8178 33.6588 82.7572 35.4892 80.2889 36.5541C77.8205 37.619 75.0751 37.8621 72.458 37.2473ZM21.5413 56.7523C24.4786 57.764 27.0713 59.5829 29.0222 62.0007C31.1722 64.6944 33.9099 66.8607 37.0259 68.3338C40.1418 69.8069 43.5534 70.5478 46.9997 70.4998C51.6356 70.8281 56.2251 69.3983 59.8542 66.495C63.4832 63.5917 65.8857 59.4281 66.583 54.8332C65.2095 57.1313 63.1424 58.9344 60.679 59.9831C58.2157 61.0318 55.4832 61.2719 52.8747 60.669C49.9423 59.6279 47.3538 57.7984 45.3938 55.3815C43.2262 52.7159 40.4821 50.5767 37.3682 49.1249C34.2543 47.6731 30.8517 46.9465 27.4163 46.9998C22.7804 46.6715 18.191 48.1014 14.5619 51.0046C10.9328 53.9079 8.53034 58.0716 7.83301 62.6665C9.18154 60.3409 11.2421 58.5105 13.7105 57.4456C16.1789 56.3806 18.9243 56.1376 21.5413 56.7523Z" fill="#38BDF9"/>
</svg>
