<svg width="94" height="94" viewBox="0 0 94 94" fill="none" xmlns="http://www.w3.org/2000/svg">
<g clip-path="url(#clip0_3_91)">
<path d="M0 47V94H94V0H0V47ZM57.0384 76.8685C57.4614 76.6296 59.0398 75.717 60.5321 74.8514L63.2346 73.2848L63.8025 74.1229C64.5937 75.3292 66.3209 76.986 67.3667 77.5383C70.3668 79.1206 74.4833 78.8973 76.5121 77.0761C76.8978 76.7521 77.2079 76.3474 77.4203 75.8907C77.6328 75.4339 77.7426 74.9361 77.7419 74.4323L77.738 74.2483V74.2561C77.738 73.1673 77.6009 72.6894 77.033 71.8669C76.3045 70.8251 74.8122 69.9478 70.5744 68.1069C65.7256 66.0193 63.638 64.7229 61.7267 62.6627C60.5517 61.327 59.6792 59.7532 59.1691 58.0489L59.1456 57.9628C58.7892 56.635 58.6991 53.3058 58.9811 51.9663C59.9798 47.2781 63.5166 44.0155 68.62 43.0442C70.2768 42.7308 74.1268 42.8483 75.7522 43.2518C78.1414 43.8471 79.9587 44.9124 81.6312 46.6436C82.4967 47.5679 83.7814 49.2521 83.8833 49.6594C83.9146 49.7769 79.8256 52.5186 77.3503 54.0578C77.2602 54.1166 76.8998 53.7288 76.5003 53.1335C75.2862 51.371 74.0211 50.6112 72.0823 50.478C69.231 50.2822 67.398 51.7744 67.4137 54.2654L67.4098 54.4103C67.4098 55.0018 67.5586 55.5579 67.821 56.0436L67.8132 56.024C68.4398 57.3204 69.607 58.0998 73.2573 59.6783C79.9901 62.5766 82.8688 64.484 84.6588 67.1982C86.6563 70.2258 87.1067 75.0629 85.7476 78.6584C84.2593 82.5673 80.558 85.2228 75.3488 86.1001C73.7391 86.386 69.9203 86.3429 68.1892 86.0296C64.4135 85.3559 60.8337 83.4916 58.6247 81.0437C57.7591 80.0919 56.071 77.597 56.1768 77.4208C56.4482 77.2132 56.7364 77.0285 57.0384 76.8685ZM20.5938 47.2546C20.5938 45.1631 20.6369 43.4163 20.6957 43.3771C20.7427 43.3144 28.1883 43.2831 37.2123 43.2988L53.6427 43.3458L53.6858 47.1802L53.7171 51.0303H41.4775V85.7946H32.8217V51.0303H20.5938V47.2546Z" fill="#1677C7"/>
</g>
<defs>
<clipPath id="clip0_3_91">
<rect width="94" height="94" fill="white"/>
</clipPath>
</defs>
</svg>
